<?xml version="1.0" encoding="utf-8"?>
<svg xmlns="http://www.w3.org/2000/svg" width="400" height="400" viewBox="0 0 124 124" fill="none">
  <defs>
    <linearGradient id="keyFace" x1="0" y1="0" x2="0" y2="1">
      <stop offset="0" stop-color="#4A4A52"/>
      <stop offset="0.55" stop-color="#3A3A40"/>
      <stop offset="1" stop-color="#2E2E34"/>
    </linearGradient>
    <linearGradient id="keyHighlight" x1="0" y1="0" x2="0" y2="1">
      <stop offset="0" stop-color="#FFFFFF" stop-opacity="0.18"/>
      <stop offset="0.4" stop-color="#FFFFFF" stop-opacity="0"/>
    </linearGradient>
    <linearGradient id="keyShadow" x1="0" y1="1" x2="0" y2="0">
      <stop offset="0" stop-color="#000000" stop-opacity="0.35"/>
      <stop offset="0.5" stop-color="#000000" stop-opacity="0"/>
    </linearGradient>
    <linearGradient id="bodyGrad" x1="0" y1="0" x2="0" y2="1">
      <stop offset="0" stop-color="#2A2A30"/>
      <stop offset="1" stop-color="#1C1C20"/>
    </linearGradient>
    <filter id="softShadow" x="-20%" y="-20%" width="140%" height="140%">
      <feDropShadow dx="0" dy="3" stdDeviation="3.5" flood-color="#000" flood-opacity="0.45"/>
    </filter>
  </defs>
  <rect width="124" height="10" y="100.965" rx="13" fill="#5E5C64" x="-0.046"/>
  <rect width="124" height="90" rx="18" fill="url(#bodyGrad)" filter="url(#softShadow)" y="15.965" x="-0.046"/>
  <g transform="matrix(1, 0, 0, 1, -0.046274, 15.965294)">
    <g>
      <rect x="10" y="20" width="17" height="14" rx="2.5" fill="url(#keyFace)"/>
      <rect x="10" y="20" width="17" height="14" rx="2.5" fill="url(#keyHighlight)"/>
      <rect x="10" y="20" width="17" height="14" rx="2.5" fill="url(#keyShadow)"/>
    </g>
    <g>
      <rect x="30" y="20" width="17" height="14" rx="2.5" fill="url(#keyFace)"/>
      <rect x="30" y="20" width="17" height="14" rx="2.5" fill="url(#keyHighlight)"/>
      <rect x="30" y="20" width="17" height="14" rx="2.5" fill="url(#keyShadow)"/>
    </g>
    <g>
      <rect x="50" y="20" width="17" height="14" rx="2.5" fill="url(#keyFace)"/>
      <rect x="50" y="20" width="17" height="14" rx="2.5" fill="url(#keyHighlight)"/>
      <rect x="50" y="20" width="17" height="14" rx="2.5" fill="url(#keyShadow)"/>
    </g>
    <g>
      <rect x="70" y="20" width="17" height="14" rx="2.5" fill="url(#keyFace)"/>
      <rect x="70" y="20" width="17" height="14" rx="2.5" fill="url(#keyHighlight)"/>
      <rect x="70" y="20" width="17" height="14" rx="2.5" fill="url(#keyShadow)"/>
    </g>
    <g>
      <rect x="90" y="20" width="23" height="14" rx="2.5" fill="url(#keyFace)"/>
      <rect x="90" y="20" width="23" height="14" rx="2.5" fill="url(#keyHighlight)"/>
      <rect x="90" y="20" width="23" height="14" rx="2.5" fill="url(#keyShadow)"/>
    </g>
    <g>
      <rect x="10" y="40" width="23" height="14" rx="2.5" fill="url(#keyFace)"/>
      <rect x="10" y="40" width="23" height="14" rx="2.5" fill="url(#keyHighlight)"/>
      <rect x="10" y="40" width="23" height="14" rx="2.5" fill="url(#keyShadow)"/>
    </g>
    <g>
      <rect x="36" y="40" width="17" height="14" rx="2.5" fill="url(#keyFace)"/>
      <rect x="36" y="40" width="17" height="14" rx="2.5" fill="url(#keyHighlight)"/>
      <rect x="36" y="40" width="17" height="14" rx="2.5" fill="url(#keyShadow)"/>
    </g>
    <g>
      <rect x="56" y="40" width="17" height="14" rx="2.5" fill="url(#keyFace)"/>
      <rect x="56" y="40" width="17" height="14" rx="2.5" fill="url(#keyHighlight)"/>
      <rect x="56" y="40" width="17" height="14" rx="2.5" fill="url(#keyShadow)"/>
    </g>
    <g>
      <rect x="76" y="40" width="17" height="14" rx="2.5" fill="url(#keyFace)"/>
      <rect x="76" y="40" width="17" height="14" rx="2.5" fill="url(#keyHighlight)"/>
      <rect x="76" y="40" width="17" height="14" rx="2.5" fill="url(#keyShadow)"/>
    </g>
    <g>
      <rect x="96" y="40" width="17" height="14" rx="2.5" fill="url(#keyFace)"/>
      <rect x="96" y="40" width="17" height="14" rx="2.5" fill="url(#keyHighlight)"/>
      <rect x="96" y="40" width="17" height="14" rx="2.5" fill="url(#keyShadow)"/>
    </g>
    <g>
      <rect x="10" y="60" width="23" height="14" rx="2.5" fill="url(#keyFace)"/>
      <rect x="10" y="60" width="23" height="14" rx="2.5" fill="url(#keyHighlight)"/>
      <rect x="10" y="60" width="23" height="14" rx="2.5" fill="url(#keyShadow)"/>
    </g>
    <g>
      <rect x="36" y="60" width="52" height="14" rx="3" fill="url(#keyFace)"/>
      <rect x="36" y="60" width="52" height="14" rx="3" fill="url(#keyHighlight)"/>
      <rect x="36" y="60" width="52" height="14" rx="3" fill="url(#keyShadow)"/>
    </g>
    <g>
      <rect x="90" y="60" width="23" height="14" rx="2.5" fill="url(#keyFace)"/>
      <rect x="90" y="60" width="23" height="14" rx="2.5" fill="url(#keyHighlight)"/>
      <rect x="90" y="60" width="23" height="14" rx="2.5" fill="url(#keyShadow)"/>
    </g>
  </g>
</svg>